<?xml version="1.0" standalone="no"?>
<svg xmlns:xlink="http://www.w3.org/1999/xlink" id="wave" style="transform:rotate(0deg); transition: 0.3s" viewBox="0 0 1440 490" version="1.1" xmlns="http://www.w3.org/2000/svg"><defs><linearGradient id="sw-gradient-0" x1="0" x2="0" y1="1" y2="0"><stop stop-color="rgba(255, 102.92, 54.077, 0.56)" offset="0%"/><stop stop-color="rgba(205.245, 112.073, 212.168, 1)" offset="100%"/></linearGradient></defs><path style="transform:translate(0, 0px); opacity:1" fill="url(#sw-gradient-0)" d="M0,49L48,57.2C96,65,192,82,288,89.8C384,98,480,98,576,106.2C672,114,768,131,864,155.2C960,180,1056,212,1152,261.3C1248,310,1344,376,1440,400.2C1536,425,1632,408,1728,408.3C1824,408,1920,425,2016,375.7C2112,327,2208,212,2304,196C2400,180,2496,261,2592,253.2C2688,245,2784,147,2880,155.2C2976,163,3072,278,3168,302.2C3264,327,3360,261,3456,253.2C3552,245,3648,294,3744,302.2C3840,310,3936,278,4032,277.7C4128,278,4224,310,4320,343C4416,376,4512,408,4608,424.7C4704,441,4800,441,4896,400.2C4992,359,5088,278,5184,228.7C5280,180,5376,163,5472,171.5C5568,180,5664,212,5760,236.8C5856,261,5952,278,6048,310.3C6144,343,6240,392,6336,343C6432,294,6528,147,6624,138.8C6720,131,6816,261,6864,326.7L6912,392L6912,490L6864,490C6816,490,6720,490,6624,490C6528,490,6432,490,6336,490C6240,490,6144,490,6048,490C5952,490,5856,490,5760,490C5664,490,5568,490,5472,490C5376,490,5280,490,5184,490C5088,490,4992,490,4896,490C4800,490,4704,490,4608,490C4512,490,4416,490,4320,490C4224,490,4128,490,4032,490C3936,490,3840,490,3744,490C3648,490,3552,490,3456,490C3360,490,3264,490,3168,490C3072,490,2976,490,2880,490C2784,490,2688,490,2592,490C2496,490,2400,490,2304,490C2208,490,2112,490,2016,490C1920,490,1824,490,1728,490C1632,490,1536,490,1440,490C1344,490,1248,490,1152,490C1056,490,960,490,864,490C768,490,672,490,576,490C480,490,384,490,288,490C192,490,96,490,48,490L0,490Z"/><defs><linearGradient id="sw-gradient-1" x1="0" x2="0" y1="1" y2="0"><stop stop-color="rgba(187.123, 1.651, 181.102, 0.42)" offset="0%"/><stop stop-color="rgba(232.659, 13.874, 13.874, 0.61)" offset="100%"/></linearGradient></defs><path style="transform:translate(0, 50px); opacity:0.9" fill="url(#sw-gradient-1)" d="M0,98L48,130.7C96,163,192,229,288,236.8C384,245,480,196,576,179.7C672,163,768,180,864,212.3C960,245,1056,294,1152,326.7C1248,359,1344,376,1440,326.7C1536,278,1632,163,1728,130.7C1824,98,1920,147,2016,212.3C2112,278,2208,359,2304,359.3C2400,359,2496,278,2592,204.2C2688,131,2784,65,2880,98C2976,131,3072,261,3168,294C3264,327,3360,261,3456,196C3552,131,3648,65,3744,40.8C3840,16,3936,33,4032,32.7C4128,33,4224,16,4320,16.3C4416,16,4512,33,4608,57.2C4704,82,4800,114,4896,106.2C4992,98,5088,49,5184,57.2C5280,65,5376,131,5472,163.3C5568,196,5664,196,5760,228.7C5856,261,5952,327,6048,359.3C6144,392,6240,392,6336,375.7C6432,359,6528,327,6624,326.7C6720,327,6816,359,6864,375.7L6912,392L6912,490L6864,490C6816,490,6720,490,6624,490C6528,490,6432,490,6336,490C6240,490,6144,490,6048,490C5952,490,5856,490,5760,490C5664,490,5568,490,5472,490C5376,490,5280,490,5184,490C5088,490,4992,490,4896,490C4800,490,4704,490,4608,490C4512,490,4416,490,4320,490C4224,490,4128,490,4032,490C3936,490,3840,490,3744,490C3648,490,3552,490,3456,490C3360,490,3264,490,3168,490C3072,490,2976,490,2880,490C2784,490,2688,490,2592,490C2496,490,2400,490,2304,490C2208,490,2112,490,2016,490C1920,490,1824,490,1728,490C1632,490,1536,490,1440,490C1344,490,1248,490,1152,490C1056,490,960,490,864,490C768,490,672,490,576,490C480,490,384,490,288,490C192,490,96,490,48,490L0,490Z"/><defs><linearGradient id="sw-gradient-2" x1="0" x2="0" y1="1" y2="0"><stop stop-color="rgba(0, 202.709, 244.043, 1)" offset="0%"/><stop stop-color="rgba(186.102, 159.048, 196.23, 1)" offset="100%"/></linearGradient></defs><path style="transform:translate(0, 100px); opacity:0.8" fill="url(#sw-gradient-2)" d="M0,294L48,285.8C96,278,192,261,288,228.7C384,196,480,147,576,155.2C672,163,768,229,864,236.8C960,245,1056,196,1152,171.5C1248,147,1344,147,1440,130.7C1536,114,1632,82,1728,130.7C1824,180,1920,310,2016,359.3C2112,408,2208,376,2304,310.3C2400,245,2496,147,2592,155.2C2688,163,2784,278,2880,294C2976,310,3072,229,3168,171.5C3264,114,3360,82,3456,98C3552,114,3648,180,3744,179.7C3840,180,3936,114,4032,89.8C4128,65,4224,82,4320,73.5C4416,65,4512,33,4608,16.3C4704,0,4800,0,4896,8.2C4992,16,5088,33,5184,40.8C5280,49,5376,49,5472,73.5C5568,98,5664,147,5760,212.3C5856,278,5952,359,6048,400.2C6144,441,6240,441,6336,392C6432,343,6528,245,6624,220.5C6720,196,6816,245,6864,269.5L6912,294L6912,490L6864,490C6816,490,6720,490,6624,490C6528,490,6432,490,6336,490C6240,490,6144,490,6048,490C5952,490,5856,490,5760,490C5664,490,5568,490,5472,490C5376,490,5280,490,5184,490C5088,490,4992,490,4896,490C4800,490,4704,490,4608,490C4512,490,4416,490,4320,490C4224,490,4128,490,4032,490C3936,490,3840,490,3744,490C3648,490,3552,490,3456,490C3360,490,3264,490,3168,490C3072,490,2976,490,2880,490C2784,490,2688,490,2592,490C2496,490,2400,490,2304,490C2208,490,2112,490,2016,490C1920,490,1824,490,1728,490C1632,490,1536,490,1440,490C1344,490,1248,490,1152,490C1056,490,960,490,864,490C768,490,672,490,576,490C480,490,384,490,288,490C192,490,96,490,48,490L0,490Z"/></svg>