<svg xmlns="http://www.w3.org/2000/svg" xmlns:xlink="http://www.w3.org/1999/xlink" id="wave" style="transform:rotate(180deg);transition:.3s" version="1.1" viewBox="0 0 1440 300"><defs><linearGradient id="sw-gradient-0" x1="0" x2="0" y1="1" y2="0"><stop offset="0%" stop-color="rgba(34.252, 165.123, 198.507, 1)"/><stop offset="100%" stop-color="rgba(0, 116.793, 255, 1)"/></linearGradient></defs><path style="transform:translate(0,0);opacity:1" fill="url(#sw-gradient-0)" d="M0,30L30,45C60,60,120,90,180,110C240,130,300,140,360,150C420,160,480,170,540,170C600,170,660,160,720,130C780,100,840,50,900,50C960,50,1020,100,1080,120C1140,140,1200,130,1260,145C1320,160,1380,200,1440,210C1500,220,1560,200,1620,170C1680,140,1740,100,1800,105C1860,110,1920,160,1980,150C2040,140,2100,70,2160,50C2220,30,2280,60,2340,100C2400,140,2460,190,2520,210C2580,230,2640,220,2700,215C2760,210,2820,210,2880,215C2940,220,3000,230,3060,235C3120,240,3180,240,3240,220C3300,200,3360,160,3420,160C3480,160,3540,200,3600,180C3660,160,3720,80,3780,80C3840,80,3900,160,3960,165C4020,170,4080,100,4140,95C4200,90,4260,150,4290,180L4320,210L4320,300L4290,300C4260,300,4200,300,4140,300C4080,300,4020,300,3960,300C3900,300,3840,300,3780,300C3720,300,3660,300,3600,300C3540,300,3480,300,3420,300C3360,300,3300,300,3240,300C3180,300,3120,300,3060,300C3000,300,2940,300,2880,300C2820,300,2760,300,2700,300C2640,300,2580,300,2520,300C2460,300,2400,300,2340,300C2280,300,2220,300,2160,300C2100,300,2040,300,1980,300C1920,300,1860,300,1800,300C1740,300,1680,300,1620,300C1560,300,1500,300,1440,300C1380,300,1320,300,1260,300C1200,300,1140,300,1080,300C1020,300,960,300,900,300C840,300,780,300,720,300C660,300,600,300,540,300C480,300,420,300,360,300C300,300,240,300,180,300C120,300,60,300,30,300L0,300Z"/><defs><linearGradient id="sw-gradient-1" x1="0" x2="0" y1="1" y2="0"><stop offset="0%" stop-color="rgba(1.651, 187.123, 136.861, 0.42)"/><stop offset="100%" stop-color="rgba(11, 255, 31.836, 0.61)"/></linearGradient></defs><path style="transform:translate(0,50px);opacity:.9" fill="url(#sw-gradient-1)" d="M0,270L30,230C60,190,120,110,180,75C240,40,300,50,360,65C420,80,480,100,540,105C600,110,660,100,720,120C780,140,840,190,900,220C960,250,1020,260,1080,245C1140,230,1200,190,1260,165C1320,140,1380,130,1440,145C1500,160,1560,200,1620,200C1680,200,1740,160,1800,135C1860,110,1920,100,1980,120C2040,140,2100,190,2160,180C2220,170,2280,100,2340,90C2400,80,2460,130,2520,165C2580,200,2640,220,2700,215C2760,210,2820,180,2880,150C2940,120,3000,90,3060,85C3120,80,3180,100,3240,100C3300,100,3360,80,3420,90C3480,100,3540,140,3600,160C3660,180,3720,180,3780,165C3840,150,3900,120,3960,110C4020,100,4080,110,4140,110C4200,110,4260,100,4290,95L4320,90L4320,300L4290,300C4260,300,4200,300,4140,300C4080,300,4020,300,3960,300C3900,300,3840,300,3780,300C3720,300,3660,300,3600,300C3540,300,3480,300,3420,300C3360,300,3300,300,3240,300C3180,300,3120,300,3060,300C3000,300,2940,300,2880,300C2820,300,2760,300,2700,300C2640,300,2580,300,2520,300C2460,300,2400,300,2340,300C2280,300,2220,300,2160,300C2100,300,2040,300,1980,300C1920,300,1860,300,1800,300C1740,300,1680,300,1620,300C1560,300,1500,300,1440,300C1380,300,1320,300,1260,300C1200,300,1140,300,1080,300C1020,300,960,300,900,300C840,300,780,300,720,300C660,300,600,300,540,300C480,300,420,300,360,300C300,300,240,300,180,300C120,300,60,300,30,300L0,300Z"/><defs><linearGradient id="sw-gradient-2" x1="0" x2="0" y1="1" y2="0"><stop offset="0%" stop-color="rgba(0, 211.81, 255, 1)"/><stop offset="100%" stop-color="rgba(188.533, 11, 255, 1)"/></linearGradient></defs><path style="transform:translate(0,100px);opacity:.8" fill="url(#sw-gradient-2)" d="M0,270L30,230C60,190,120,110,180,85C240,60,300,90,360,105C420,120,480,120,540,100C600,80,660,40,720,35C780,30,840,60,900,75C960,90,1020,90,1080,110C1140,130,1200,170,1260,195C1320,220,1380,230,1440,235C1500,240,1560,240,1620,235C1680,230,1740,220,1800,220C1860,220,1920,230,1980,215C2040,200,2100,160,2160,160C2220,160,2280,200,2340,215C2400,230,2460,220,2520,200C2580,180,2640,150,2700,150C2760,150,2820,180,2880,170C2940,160,3000,110,3060,90C3120,70,3180,80,3240,70C3300,60,3360,30,3420,20C3480,10,3540,20,3600,45C3660,70,3720,110,3780,120C3840,130,3900,110,3960,105C4020,100,4080,110,4140,105C4200,100,4260,80,4290,70L4320,60L4320,300L4290,300C4260,300,4200,300,4140,300C4080,300,4020,300,3960,300C3900,300,3840,300,3780,300C3720,300,3660,300,3600,300C3540,300,3480,300,3420,300C3360,300,3300,300,3240,300C3180,300,3120,300,3060,300C3000,300,2940,300,2880,300C2820,300,2760,300,2700,300C2640,300,2580,300,2520,300C2460,300,2400,300,2340,300C2280,300,2220,300,2160,300C2100,300,2040,300,1980,300C1920,300,1860,300,1800,300C1740,300,1680,300,1620,300C1560,300,1500,300,1440,300C1380,300,1320,300,1260,300C1200,300,1140,300,1080,300C1020,300,960,300,900,300C840,300,780,300,720,300C660,300,600,300,540,300C480,300,420,300,360,300C300,300,240,300,180,300C120,300,60,300,30,300L0,300Z"/></svg>